<svg width="191" height="27" viewBox="0 0 191 27" fill="none" xmlns="http://www.w3.org/2000/svg">
<path d="M3.95992 5.03999V24.12L6.83992 25.2V25.74H-7.80821e-05V25.2L2.87992 24.12V1.61999L0.719922 1.07999V0.539989H5.21992C6.46792 0.539989 7.45192 0.803989 8.17192 1.33199C8.91592 1.83599 9.55192 2.59199 10.0799 3.59999L17.9279 18.612L23.9399 3.59999C24.3479 2.54399 24.8999 1.77599 25.5959 1.29599C26.2919 0.791989 27.3599 0.539989 28.7999 0.539989H32.5799V1.07999L30.4199 1.61999V24.66L32.5799 25.2V25.74H22.3199V25.2L24.4799 24.66V5.03999L16.0199 26.1H14.9399L3.95992 5.03999ZM35.841 25.2L38.001 24.66V1.61999L35.841 1.07999V0.539989H55.101V7.01999H54.021C53.565 6.65999 53.169 6.20399 52.833 5.65199C52.065 4.35599 51.681 2.95199 51.681 1.43999H43.941V12.78H48.081C48.249 11.868 48.561 11.016 49.017 10.224C49.209 9.86399 49.437 9.51599 49.701 9.17999H50.781V17.28H49.701C49.437 16.944 49.209 16.596 49.017 16.236C48.561 15.444 48.249 14.592 48.081 13.68H43.941V24.84H52.401C52.401 23.328 52.785 21.924 53.553 20.628C53.889 20.076 54.285 19.62 54.741 19.26H55.821V25.74H35.841V25.2ZM59.0441 25.2L61.2041 24.66V1.61999L59.0441 1.07999V0.539989H68.2241C72.5201 0.539989 75.8081 1.64399 78.0881 3.85199C80.3921 6.05999 81.5441 9.15599 81.5441 13.14C81.5441 17.124 80.3921 20.22 78.0881 22.428C75.8081 24.636 72.5201 25.74 68.2241 25.74H59.0441V25.2ZM68.2241 24.84C70.4561 24.84 72.1841 23.94 73.4081 22.14C74.6321 20.316 75.2441 17.316 75.2441 13.14C75.2441 8.96399 74.6321 5.97599 73.4081 4.17599C72.1841 2.35199 70.4561 1.43999 68.2241 1.43999H67.1441V24.84H68.2241Z" fill="#1F2B6C"/>
<path d="M84.7785 25.2L86.9385 24.66V1.61999L84.7785 1.07999V0.539989H93.9585C98.2545 0.539989 101.543 1.64399 103.823 3.85199C106.127 6.05999 107.279 9.15599 107.279 13.14C107.279 17.124 106.127 20.22 103.823 22.428C101.543 24.636 98.2545 25.74 93.9585 25.74H84.7785V25.2ZM93.9585 24.84C96.1905 24.84 97.9185 23.94 99.1425 22.14C100.367 20.316 100.979 17.316 100.979 13.14C100.979 8.96399 100.367 5.97599 99.1425 4.17599C97.9185 2.35199 96.1905 1.43999 93.9585 1.43999H92.8785V24.84H93.9585ZM110.513 25.74V25.2L112.673 24.66V1.61999L110.513 1.07999V0.539989H120.773V1.07999L118.613 1.61999V24.66L120.773 25.2V25.74H110.513ZM136.424 26.28C132.584 26.28 129.584 25.14 127.424 22.86C125.264 20.58 124.184 17.34 124.184 13.14C124.184 10.38 124.652 8.01599 125.588 6.04799C126.548 4.05599 127.88 2.55599 129.584 1.54799C131.312 0.515989 133.304 -1.09673e-05 135.56 -1.09673e-05C136.928 -1.09673e-05 138.308 0.395989 139.7 1.18799C140.228 1.47599 140.756 1.85999 141.284 2.33999C141.692 1.71599 142.112 1.22399 142.544 0.863989C142.976 0.551988 143.216 0.383988 143.264 0.359989H144.164V7.19999H142.724C142.412 6.04799 141.944 5.00399 141.32 4.06799C140.744 3.15599 140.024 2.39999 139.16 1.79999C138.32 1.19999 137.348 0.899988 136.244 0.899988C134.588 0.899988 133.208 1.85999 132.104 3.77999C131.024 5.69999 130.484 8.81999 130.484 13.14C130.484 17.532 131.072 20.676 132.248 22.572C133.448 24.444 135.08 25.38 137.144 25.38C138.272 25.38 139.34 25.068 140.348 24.444C141.38 23.796 142.208 22.944 142.832 21.888C143.48 20.832 143.804 19.716 143.804 18.54H144.704C144.704 19.908 144.332 21.192 143.588 22.392C142.868 23.568 141.872 24.516 140.6 25.236C139.352 25.932 137.96 26.28 136.424 26.28ZM144.555 25.2L147.435 24.12L157.335 0.179989H158.415L168.675 24.66L170.475 25.2V25.74H166.155C164.907 25.74 163.887 25.464 163.095 24.912C162.303 24.336 161.715 23.592 161.331 22.68L159.495 18.36H150.891L148.515 24.12L151.215 25.2V25.74H144.555V25.2ZM151.251 17.46H159.135L155.175 7.99199L151.251 17.46ZM171.544 25.2L173.704 24.66V1.61999L171.544 1.07999V0.539989H181.804V1.07999L179.644 1.61999V24.84H187.384C187.384 23.328 187.768 21.924 188.536 20.628C188.872 20.076 189.268 19.62 189.724 19.26H190.804V25.74H171.544V25.2Z" fill="#159EEC"/>
</svg>
