<svg width="32" height="32" viewBox="0 0 32 32" fill="none" xmlns="http://www.w3.org/2000/svg">
<g filter="url(#filter0_d_416_192)">
<path d="M20.8725 8.31375C20.7684 8.04406 20.6089 7.79917 20.4044 7.59486C20.1999 7.39055 19.9548 7.23134 19.685 7.1275C19.3135 6.98991 18.9211 6.91718 18.525 6.9125C17.8663 6.8825 17.6688 6.875 16 6.875C14.3313 6.875 14.1338 6.8825 13.475 6.9125C13.0785 6.91704 12.6856 6.98976 12.3138 7.1275C12.0441 7.23163 11.7992 7.39109 11.5949 7.59562C11.3906 7.80015 11.2313 8.0452 11.1275 8.315C10.9899 8.68649 10.9172 9.07887 10.9125 9.475C10.8825 10.1337 10.875 10.3312 10.875 12C10.875 13.6687 10.8825 13.8662 10.9125 14.525C10.917 14.9215 10.9898 15.3144 11.1275 15.6862C11.2316 15.9559 11.3911 16.2008 11.5956 16.4051C11.8002 16.6094 12.0452 16.7687 12.315 16.8725C12.6865 17.0101 13.0789 17.0828 13.475 17.0875C14.1338 17.1175 14.3313 17.1237 16 17.1237C17.6688 17.1237 17.8663 17.1175 18.525 17.0862C18.9215 17.0821 19.3143 17.0098 19.6863 16.8725C19.9559 16.7684 20.2008 16.6089 20.4051 16.4044C20.6095 16.1999 20.7687 15.9548 20.8725 15.685C21.0101 15.3135 21.0828 14.9211 21.0875 14.525C21.1175 13.8662 21.1238 13.6687 21.1238 12C21.1238 10.3312 21.1175 10.1337 21.0863 9.475C21.0821 9.07852 21.0098 8.68571 20.8725 8.31375ZM16 15.21C15.3651 15.21 14.7445 15.0217 14.2166 14.669C13.6887 14.3163 13.2773 13.815 13.0344 13.2284C12.7914 12.6419 12.7278 11.9964 12.8517 11.3738C12.9755 10.7511 13.2813 10.1791 13.7302 9.73019C14.1791 9.28126 14.7511 8.97554 15.3738 8.85168C15.9964 8.72782 16.6419 8.79139 17.2284 9.03435C17.815 9.2773 18.3163 9.68874 18.669 10.2166C19.0217 10.7445 19.21 11.3651 19.21 12C19.21 12.8513 18.8718 13.6678 18.2698 14.2698C17.6678 14.8718 16.8513 15.21 16 15.21ZM19.3363 9.41375C19.1879 9.41375 19.0429 9.36976 18.9196 9.28735C18.7962 9.20494 18.7001 9.08781 18.6433 8.95076C18.5866 8.81372 18.5717 8.66292 18.6007 8.51743C18.6296 8.37194 18.701 8.23831 18.8059 8.13342C18.9108 8.02853 19.0444 7.9571 19.1899 7.92816C19.3354 7.89922 19.4862 7.91407 19.6233 7.97084C19.7603 8.0276 19.8774 8.12373 19.9599 8.24707C20.0423 8.37041 20.0863 8.51541 20.0863 8.66375C20.0863 8.86266 20.0072 9.05343 19.8666 9.19408C19.7259 9.33473 19.5352 9.41375 19.3363 9.41375ZM18.0838 12C18.0838 12.4121 17.9615 12.815 17.7326 13.1577C17.5036 13.5003 17.1782 13.7674 16.7974 13.9251C16.4167 14.0828 15.9977 14.1241 15.5935 14.0437C15.1893 13.9633 14.818 13.7648 14.5266 13.4734C14.2352 13.182 14.0367 12.8107 13.9563 12.4065C13.8759 12.0023 13.9172 11.5833 14.0749 11.2026C14.2326 10.8218 14.4997 10.4964 14.8423 10.2674C15.185 10.0385 15.5879 9.91625 16 9.91625C16.5526 9.91625 17.0827 10.1358 17.4734 10.5266C17.8642 10.9173 18.0838 11.4474 18.0838 12ZM16 0C13.6266 0 11.3066 0.703788 9.33316 2.02236C7.35977 3.34094 5.8217 5.21508 4.91345 7.4078C4.0052 9.60051 3.76756 12.0133 4.23058 14.3411C4.6936 16.6689 5.83649 18.807 7.51472 20.4853C9.19295 22.1635 11.3311 23.3064 13.6589 23.7694C15.9867 24.2324 18.3995 23.9948 20.5922 23.0865C22.7849 22.1783 24.6591 20.6402 25.9776 18.6668C27.2962 16.6935 28 14.3734 28 12C28 8.8174 26.7357 5.76515 24.4853 3.51472C22.2348 1.26428 19.1826 0 16 0V0ZM22.2125 14.5762C22.2019 15.0949 22.1034 15.608 21.9213 16.0937C21.7607 16.5088 21.5152 16.8858 21.2005 17.2005C20.8858 17.5152 20.5089 17.7607 20.0938 17.9212C19.6084 18.1033 19.0957 18.2018 18.5775 18.2125C17.91 18.2425 17.6975 18.25 16 18.25C14.3025 18.25 14.09 18.2425 13.4225 18.2125C12.9043 18.2018 12.3916 18.1033 11.9063 17.9212C11.4912 17.7607 11.1142 17.5152 10.7995 17.2005C10.4848 16.8858 10.2393 16.5088 10.0788 16.0937C9.89671 15.6084 9.79823 15.0957 9.7875 14.5775C9.7575 13.91 9.75 13.6975 9.75 12C9.75 10.3025 9.7575 10.09 9.7875 9.4225C9.79783 8.90433 9.89588 8.39165 10.0775 7.90625C10.238 7.4908 10.4836 7.1135 10.7986 6.79856C11.1135 6.48363 11.4908 6.23802 11.9063 6.0775C12.3917 5.89588 12.9043 5.79782 13.4225 5.7875C14.09 5.7575 14.3025 5.75 16 5.75C17.6975 5.75 17.91 5.7575 18.5775 5.7875C19.0957 5.79782 19.6083 5.89588 20.0938 6.0775C20.509 6.23817 20.886 6.48384 21.2007 6.79877C21.5155 7.1137 21.7609 7.49092 21.9213 7.90625C22.1033 8.39158 22.2018 8.90426 22.2125 9.4225C22.2425 10.09 22.25 10.3025 22.25 12C22.25 13.6975 22.2425 13.91 22.2125 14.5775V14.5762Z" fill="#BFD2F8"/>
</g>
<defs>
<filter id="filter0_d_416_192" x="0" y="0" width="32" height="32" filterUnits="userSpaceOnUse" color-interpolation-filters="sRGB">
<feFlood flood-opacity="0" result="BackgroundImageFix"/>
<feColorMatrix in="SourceAlpha" type="matrix" values="0 0 0 0 0 0 0 0 0 0 0 0 0 0 0 0 0 0 127 0" result="hardAlpha"/>
<feOffset dy="4"/>
<feGaussianBlur stdDeviation="2"/>
<feComposite in2="hardAlpha" operator="out"/>
<feColorMatrix type="matrix" values="0 0 0 0 0 0 0 0 0 0 0 0 0 0 0 0 0 0 0.25 0"/>
<feBlend mode="normal" in2="BackgroundImageFix" result="effect1_dropShadow_416_192"/>
<feBlend mode="normal" in="SourceGraphic" in2="effect1_dropShadow_416_192" result="shape"/>
</filter>
</defs>
</svg>
