<svg width="23" height="23" viewBox="0 0 23 23" fill="none" xmlns="http://www.w3.org/2000/svg">
<path d="M20.2786 0.104522L20.2711 0.107441L0.674131 8.21439C0.508859 8.28213 0.362955 8.38979 0.249469 8.52773C0.135983 8.66566 0.0584561 8.82958 0.0238226 9.0048C-0.0144014 9.1883 -0.00640593 9.37842 0.0470894 9.55806C0.100585 9.7377 0.197901 9.90121 0.330284 10.0339L4.00452 13.7081C4.18576 13.8893 4.42452 14.0015 4.67963 14.0254C4.93474 14.0494 5.19023 13.9836 5.40206 13.8394L14.3538 7.68141C14.3891 7.65735 14.4317 7.64637 14.4743 7.65037C14.5168 7.65436 14.5566 7.67308 14.5868 7.7033C14.617 7.73351 14.6358 7.77332 14.6398 7.81587C14.6438 7.85841 14.6328 7.90101 14.6087 7.93633L8.45101 16.8877C8.30678 17.0994 8.24089 17.3548 8.26468 17.6098C8.28847 17.8649 8.40045 18.1036 8.58134 18.285L12.2562 21.9598C12.3827 22.0865 12.5386 22.1797 12.71 22.2312C12.8814 22.2828 13.063 22.2909 13.2383 22.255C13.4498 22.2123 13.6441 22.1083 13.7968 21.9559C13.9028 21.8497 13.9865 21.7235 14.043 21.5845L22.1824 2.02061L22.1856 2.01153C22.2919 1.74495 22.3178 1.45305 22.2599 1.17195C22.2021 0.890843 22.0631 0.632867 21.8602 0.429935C21.6573 0.227004 21.3993 0.0880224 21.1182 0.0301848C20.8371 -0.0276521 20.5452 -0.0018077 20.2786 0.104522Z" fill="#1F2B6C"/>
</svg>
