<svg width="58" height="52" viewBox="0 0 58 52" fill="none" xmlns="http://www.w3.org/2000/svg">
<g filter="url(#filter0_d_183_112)">
<path d="M12.4597 21.9877H11.5061L29.0122 39.5583L43.3888 25.1288H47.8142L29.0122 44L7.86308 22.7975C7.29258 22.2249 6.78729 21.6074 6.34719 20.9448C5.90709 20.2822 5.52404 19.5828 5.19804 18.8466H11.1394L18.0587 11.9264L29.0122 22.8957L36.8362 15.0675L40.6259 18.8466H49.3056C49.8272 18.0123 50.2266 17.1288 50.5037 16.1963C50.7808 15.2638 50.9193 14.3067 50.9193 13.3252C50.9193 11.9018 50.6544 10.5767 50.1247 9.34969C49.5949 8.1227 48.8696 7.05521 47.9487 6.14724C47.0277 5.23926 45.9519 4.52761 44.7213 4.01227C43.4906 3.49693 42.1663 3.23926 40.7482 3.23926C39.379 3.23926 38.1646 3.45603 37.1051 3.88957C36.0456 4.32311 35.0676 4.89162 34.1711 5.59509C33.2747 6.29857 32.4148 7.09611 31.5917 7.98773C30.7685 8.87934 29.9087 9.78323 29.0122 10.6994C28.132 9.81595 27.2763 8.92434 26.445 8.02454C25.6137 7.12474 24.7457 6.31493 23.8411 5.59509C22.9364 4.87526 21.9503 4.2863 20.8826 3.82822C19.815 3.37014 18.6129 3.1411 17.2763 3.1411C15.8745 3.1411 14.5583 3.40695 13.3276 3.93865C12.097 4.47035 11.0212 5.19836 10.1002 6.1227C9.1793 7.04703 8.45395 8.12679 7.92421 9.36196C7.39446 10.5971 7.12958 11.9182 7.12958 13.3252C7.12958 14.0941 7.21923 14.8875 7.39853 15.7055H4.1956C4.1141 15.3129 4.06112 14.9202 4.03667 14.5276C4.01222 14.135 4 13.7423 4 13.3497C4 11.501 4.34637 9.76687 5.03912 8.14724C5.73187 6.52761 6.67726 5.11247 7.87531 3.90184C9.07335 2.69121 10.4792 1.73824 12.0929 1.04294C13.7066 0.347648 15.4344 0 17.2763 0C18.6292 0 19.8354 0.155419 20.8949 0.466258C21.9544 0.777096 22.9364 1.20654 23.8411 1.7546C24.7457 2.30266 25.6096 2.96115 26.4328 3.73006C27.2559 4.49898 28.1157 5.34151 29.0122 6.25767C29.9087 5.34151 30.7685 4.49898 31.5917 3.73006C32.4148 2.96115 33.2787 2.30266 34.1834 1.7546C35.088 1.20654 36.0701 0.777096 37.1296 0.466258C38.1891 0.155419 39.3953 0 40.7482 0C42.5738 0 44.2934 0.347648 45.9071 1.04294C47.5208 1.73824 48.9267 2.68303 50.1247 3.8773C51.3227 5.07157 52.2681 6.47853 52.9609 8.09816C53.6536 9.71779 54 11.4438 54 13.2761C54 14.863 53.7229 16.4049 53.1687 17.9018C52.6145 19.3988 51.824 20.7607 50.7971 21.9877H39.3056L36.8362 19.4847L29.0122 27.362L18.0587 16.3436L12.4597 21.9877Z" fill="#159EEC"/>
</g>
<defs>
<filter id="filter0_d_183_112" x="0" y="0" width="58" height="52" filterUnits="userSpaceOnUse" color-interpolation-filters="sRGB">
<feFlood flood-opacity="0" result="BackgroundImageFix"/>
<feColorMatrix in="SourceAlpha" type="matrix" values="0 0 0 0 0 0 0 0 0 0 0 0 0 0 0 0 0 0 127 0" result="hardAlpha"/>
<feOffset dy="4"/>
<feGaussianBlur stdDeviation="2"/>
<feComposite in2="hardAlpha" operator="out"/>
<feColorMatrix type="matrix" values="0 0 0 0 0 0 0 0 0 0 0 0 0 0 0 0 0 0 0.25 0"/>
<feBlend mode="normal" in2="BackgroundImageFix" result="effect1_dropShadow_183_112"/>
<feBlend mode="normal" in="SourceGraphic" in2="effect1_dropShadow_183_112" result="shape"/>
</filter>
</defs>
</svg>
